<mxfile host="app.diagrams.net" agent="Mozilla/5.0 (Macintosh; Intel Mac OS X 10_15_7) AppleWebKit/537.36 (KHTML, like Gecko) Chrome/129.0.0.0 Safari/537.36" version="24.7.16">
  <diagram name="Page-1" id="158Uk1iq7pCY2wMCNZ7i">
    <mxGraphModel dx="1354" dy="631" grid="0" gridSize="10" guides="1" tooltips="1" connect="1" arrows="1" fold="1" page="0" pageScale="1" pageWidth="850" pageHeight="1100" math="0" shadow="0">
      <root>
        <mxCell id="0" />
        <mxCell id="1" parent="0" />
        <mxCell id="3MhFf8AUpUbRMDolegXa-1" value="" style="ellipse;whiteSpace=wrap;html=1;aspect=fixed;" vertex="1" parent="1">
          <mxGeometry x="-52" y="19" width="442" height="442" as="geometry" />
        </mxCell>
        <mxCell id="3MhFf8AUpUbRMDolegXa-2" value="" style="ellipse;whiteSpace=wrap;html=1;aspect=fixed;" vertex="1" parent="1">
          <mxGeometry x="73.75" y="144.75" width="190.5" height="190.5" as="geometry" />
        </mxCell>
        <mxCell id="3MhFf8AUpUbRMDolegXa-3" value="" style="ellipse;whiteSpace=wrap;html=1;aspect=fixed;" vertex="1" parent="1">
          <mxGeometry x="-41" y="192" width="80" height="80" as="geometry" />
        </mxCell>
        <mxCell id="3MhFf8AUpUbRMDolegXa-4" value="" style="ellipse;whiteSpace=wrap;html=1;aspect=fixed;" vertex="1" parent="1">
          <mxGeometry x="299" y="187" width="80" height="80" as="geometry" />
        </mxCell>
        <mxCell id="3MhFf8AUpUbRMDolegXa-5" value="" style="ellipse;whiteSpace=wrap;html=1;aspect=fixed;" vertex="1" parent="1">
          <mxGeometry x="252" y="82" width="80" height="80" as="geometry" />
        </mxCell>
        <mxCell id="3MhFf8AUpUbRMDolegXa-6" value="" style="ellipse;whiteSpace=wrap;html=1;aspect=fixed;" vertex="1" parent="1">
          <mxGeometry x="6" y="76" width="80" height="80" as="geometry" />
        </mxCell>
        <mxCell id="3MhFf8AUpUbRMDolegXa-9" value="" style="ellipse;whiteSpace=wrap;html=1;aspect=fixed;" vertex="1" parent="1">
          <mxGeometry x="129" y="31" width="80" height="80" as="geometry" />
        </mxCell>
        <mxCell id="3MhFf8AUpUbRMDolegXa-10" value="" style="ellipse;whiteSpace=wrap;html=1;aspect=fixed;" vertex="1" parent="1">
          <mxGeometry x="6" y="314" width="80" height="80" as="geometry" />
        </mxCell>
        <mxCell id="3MhFf8AUpUbRMDolegXa-11" value="" style="ellipse;whiteSpace=wrap;html=1;aspect=fixed;" vertex="1" parent="1">
          <mxGeometry x="132" y="362" width="80" height="80" as="geometry" />
        </mxCell>
        <mxCell id="3MhFf8AUpUbRMDolegXa-12" value="" style="ellipse;whiteSpace=wrap;html=1;aspect=fixed;" vertex="1" parent="1">
          <mxGeometry x="252" y="305" width="80" height="80" as="geometry" />
        </mxCell>
        <mxCell id="3MhFf8AUpUbRMDolegXa-14" value="" style="shape=table;startSize=0;container=1;collapsible=0;childLayout=tableLayout;fillColor=none;" vertex="1" parent="1">
          <mxGeometry x="-4" y="24" width="356" height="384" as="geometry" />
        </mxCell>
        <mxCell id="3MhFf8AUpUbRMDolegXa-15" value="" style="shape=tableRow;horizontal=0;startSize=0;swimlaneHead=0;swimlaneBody=0;strokeColor=inherit;top=0;left=0;bottom=0;right=0;collapsible=0;dropTarget=0;fillColor=none;points=[[0,0.5],[1,0.5]];portConstraint=eastwest;" vertex="1" parent="3MhFf8AUpUbRMDolegXa-14">
          <mxGeometry width="356" height="96" as="geometry" />
        </mxCell>
        <mxCell id="3MhFf8AUpUbRMDolegXa-16" value="" style="shape=partialRectangle;html=1;whiteSpace=wrap;connectable=0;strokeColor=inherit;overflow=hidden;fillColor=none;top=0;left=0;bottom=0;right=0;pointerEvents=1;" vertex="1" parent="3MhFf8AUpUbRMDolegXa-15">
          <mxGeometry width="89" height="96" as="geometry">
            <mxRectangle width="89" height="96" as="alternateBounds" />
          </mxGeometry>
        </mxCell>
        <mxCell id="3MhFf8AUpUbRMDolegXa-17" value="" style="shape=partialRectangle;html=1;whiteSpace=wrap;connectable=0;strokeColor=inherit;overflow=hidden;fillColor=none;top=0;left=0;bottom=0;right=0;pointerEvents=1;" vertex="1" parent="3MhFf8AUpUbRMDolegXa-15">
          <mxGeometry x="89" width="89" height="96" as="geometry">
            <mxRectangle width="89" height="96" as="alternateBounds" />
          </mxGeometry>
        </mxCell>
        <mxCell id="3MhFf8AUpUbRMDolegXa-18" value="" style="shape=partialRectangle;html=1;whiteSpace=wrap;connectable=0;strokeColor=inherit;overflow=hidden;fillColor=none;top=0;left=0;bottom=0;right=0;pointerEvents=1;" vertex="1" parent="3MhFf8AUpUbRMDolegXa-15">
          <mxGeometry x="178" width="89" height="96" as="geometry">
            <mxRectangle width="89" height="96" as="alternateBounds" />
          </mxGeometry>
        </mxCell>
        <mxCell id="3MhFf8AUpUbRMDolegXa-19" value="" style="shape=partialRectangle;html=1;whiteSpace=wrap;connectable=0;strokeColor=inherit;overflow=hidden;fillColor=none;top=0;left=0;bottom=0;right=0;pointerEvents=1;" vertex="1" parent="3MhFf8AUpUbRMDolegXa-15">
          <mxGeometry x="267" width="89" height="96" as="geometry">
            <mxRectangle width="89" height="96" as="alternateBounds" />
          </mxGeometry>
        </mxCell>
        <mxCell id="3MhFf8AUpUbRMDolegXa-20" value="" style="shape=tableRow;horizontal=0;startSize=0;swimlaneHead=0;swimlaneBody=0;strokeColor=inherit;top=0;left=0;bottom=0;right=0;collapsible=0;dropTarget=0;fillColor=none;points=[[0,0.5],[1,0.5]];portConstraint=eastwest;" vertex="1" parent="3MhFf8AUpUbRMDolegXa-14">
          <mxGeometry y="96" width="356" height="96" as="geometry" />
        </mxCell>
        <mxCell id="3MhFf8AUpUbRMDolegXa-21" value="" style="shape=partialRectangle;html=1;whiteSpace=wrap;connectable=0;strokeColor=inherit;overflow=hidden;fillColor=none;top=0;left=0;bottom=0;right=0;pointerEvents=1;" vertex="1" parent="3MhFf8AUpUbRMDolegXa-20">
          <mxGeometry width="89" height="96" as="geometry">
            <mxRectangle width="89" height="96" as="alternateBounds" />
          </mxGeometry>
        </mxCell>
        <mxCell id="3MhFf8AUpUbRMDolegXa-22" value="" style="shape=partialRectangle;html=1;whiteSpace=wrap;connectable=0;strokeColor=inherit;overflow=hidden;fillColor=none;top=0;left=0;bottom=0;right=0;pointerEvents=1;" vertex="1" parent="3MhFf8AUpUbRMDolegXa-20">
          <mxGeometry x="89" width="89" height="96" as="geometry">
            <mxRectangle width="89" height="96" as="alternateBounds" />
          </mxGeometry>
        </mxCell>
        <mxCell id="3MhFf8AUpUbRMDolegXa-23" value="" style="shape=partialRectangle;html=1;whiteSpace=wrap;connectable=0;strokeColor=inherit;overflow=hidden;fillColor=none;top=0;left=0;bottom=0;right=0;pointerEvents=1;" vertex="1" parent="3MhFf8AUpUbRMDolegXa-20">
          <mxGeometry x="178" width="89" height="96" as="geometry">
            <mxRectangle width="89" height="96" as="alternateBounds" />
          </mxGeometry>
        </mxCell>
        <mxCell id="3MhFf8AUpUbRMDolegXa-24" value="" style="shape=partialRectangle;html=1;whiteSpace=wrap;connectable=0;strokeColor=inherit;overflow=hidden;fillColor=none;top=0;left=0;bottom=0;right=0;pointerEvents=1;" vertex="1" parent="3MhFf8AUpUbRMDolegXa-20">
          <mxGeometry x="267" width="89" height="96" as="geometry">
            <mxRectangle width="89" height="96" as="alternateBounds" />
          </mxGeometry>
        </mxCell>
        <mxCell id="3MhFf8AUpUbRMDolegXa-25" value="" style="shape=tableRow;horizontal=0;startSize=0;swimlaneHead=0;swimlaneBody=0;strokeColor=inherit;top=0;left=0;bottom=0;right=0;collapsible=0;dropTarget=0;fillColor=none;points=[[0,0.5],[1,0.5]];portConstraint=eastwest;" vertex="1" parent="3MhFf8AUpUbRMDolegXa-14">
          <mxGeometry y="192" width="356" height="96" as="geometry" />
        </mxCell>
        <mxCell id="3MhFf8AUpUbRMDolegXa-26" value="" style="shape=partialRectangle;html=1;whiteSpace=wrap;connectable=0;strokeColor=inherit;overflow=hidden;fillColor=none;top=0;left=0;bottom=0;right=0;pointerEvents=1;" vertex="1" parent="3MhFf8AUpUbRMDolegXa-25">
          <mxGeometry width="89" height="96" as="geometry">
            <mxRectangle width="89" height="96" as="alternateBounds" />
          </mxGeometry>
        </mxCell>
        <mxCell id="3MhFf8AUpUbRMDolegXa-27" value="" style="shape=partialRectangle;html=1;whiteSpace=wrap;connectable=0;strokeColor=inherit;overflow=hidden;fillColor=none;top=0;left=0;bottom=0;right=0;pointerEvents=1;" vertex="1" parent="3MhFf8AUpUbRMDolegXa-25">
          <mxGeometry x="89" width="89" height="96" as="geometry">
            <mxRectangle width="89" height="96" as="alternateBounds" />
          </mxGeometry>
        </mxCell>
        <mxCell id="3MhFf8AUpUbRMDolegXa-28" value="" style="shape=partialRectangle;html=1;whiteSpace=wrap;connectable=0;strokeColor=inherit;overflow=hidden;fillColor=none;top=0;left=0;bottom=0;right=0;pointerEvents=1;" vertex="1" parent="3MhFf8AUpUbRMDolegXa-25">
          <mxGeometry x="178" width="89" height="96" as="geometry">
            <mxRectangle width="89" height="96" as="alternateBounds" />
          </mxGeometry>
        </mxCell>
        <mxCell id="3MhFf8AUpUbRMDolegXa-29" value="" style="shape=partialRectangle;html=1;whiteSpace=wrap;connectable=0;strokeColor=inherit;overflow=hidden;fillColor=none;top=0;left=0;bottom=0;right=0;pointerEvents=1;" vertex="1" parent="3MhFf8AUpUbRMDolegXa-25">
          <mxGeometry x="267" width="89" height="96" as="geometry">
            <mxRectangle width="89" height="96" as="alternateBounds" />
          </mxGeometry>
        </mxCell>
        <mxCell id="3MhFf8AUpUbRMDolegXa-30" value="" style="shape=tableRow;horizontal=0;startSize=0;swimlaneHead=0;swimlaneBody=0;strokeColor=inherit;top=0;left=0;bottom=0;right=0;collapsible=0;dropTarget=0;fillColor=none;points=[[0,0.5],[1,0.5]];portConstraint=eastwest;" vertex="1" parent="3MhFf8AUpUbRMDolegXa-14">
          <mxGeometry y="288" width="356" height="96" as="geometry" />
        </mxCell>
        <mxCell id="3MhFf8AUpUbRMDolegXa-31" value="" style="shape=partialRectangle;html=1;whiteSpace=wrap;connectable=0;strokeColor=inherit;overflow=hidden;fillColor=none;top=0;left=0;bottom=0;right=0;pointerEvents=1;" vertex="1" parent="3MhFf8AUpUbRMDolegXa-30">
          <mxGeometry width="89" height="96" as="geometry">
            <mxRectangle width="89" height="96" as="alternateBounds" />
          </mxGeometry>
        </mxCell>
        <mxCell id="3MhFf8AUpUbRMDolegXa-32" value="" style="shape=partialRectangle;html=1;whiteSpace=wrap;connectable=0;strokeColor=inherit;overflow=hidden;fillColor=none;top=0;left=0;bottom=0;right=0;pointerEvents=1;" vertex="1" parent="3MhFf8AUpUbRMDolegXa-30">
          <mxGeometry x="89" width="89" height="96" as="geometry">
            <mxRectangle width="89" height="96" as="alternateBounds" />
          </mxGeometry>
        </mxCell>
        <mxCell id="3MhFf8AUpUbRMDolegXa-33" value="" style="shape=partialRectangle;html=1;whiteSpace=wrap;connectable=0;strokeColor=inherit;overflow=hidden;fillColor=none;top=0;left=0;bottom=0;right=0;pointerEvents=1;" vertex="1" parent="3MhFf8AUpUbRMDolegXa-30">
          <mxGeometry x="178" width="89" height="96" as="geometry">
            <mxRectangle width="89" height="96" as="alternateBounds" />
          </mxGeometry>
        </mxCell>
        <mxCell id="3MhFf8AUpUbRMDolegXa-34" value="" style="shape=partialRectangle;html=1;whiteSpace=wrap;connectable=0;strokeColor=inherit;overflow=hidden;fillColor=none;top=0;left=0;bottom=0;right=0;pointerEvents=1;" vertex="1" parent="3MhFf8AUpUbRMDolegXa-30">
          <mxGeometry x="267" width="89" height="96" as="geometry">
            <mxRectangle width="89" height="96" as="alternateBounds" />
          </mxGeometry>
        </mxCell>
      </root>
    </mxGraphModel>
  </diagram>
</mxfile>
